                    <svg t="1718279543309" class="w-5 h-5 text-gray-400 dark:text-gray-500" viewBox="0 0 1024 1024"
                        version="1.1" xmlns="http://www.w3.org/2000/svg" p-id="3254" width="200" height="200">
                        <path
                            d="M597.333333 85.333333H187.733333a102.4 102.4 0 0 0-102.4 102.4v682.666667a68.266667 68.266667 0 0 0 68.266667 68.266667h512a34.133333 34.133333 0 0 0 34.133333-34.133334V187.733333a102.4 102.4 0 0 0-102.4-102.4z m2.56 68.352A34.133333 34.133333 0 0 1 631.466667 187.733333v682.666667H153.6V187.733333a34.133333 34.133333 0 0 1 34.133333-34.133333h409.6l2.56 0.085333z"
                            fill="#444444" p-id="3255"></path>
                        <path
                            d="M870.4 426.666667H665.6a34.133333 34.133333 0 0 0-34.133333 34.133333v443.733333a34.133333 34.133333 0 0 0 34.133333 34.133334h204.8a68.266667 68.266667 0 0 0 68.266667-68.266667V494.933333a68.266667 68.266667 0 0 0-68.266667-68.266666zM699.733333 870.4V494.933333h170.666667v375.466667H699.733333z"
                            fill="#444444" p-id="3256"></path>
                        <path
                            d="M426.666667 290.133333v136.533334h136.533333v68.266666h-136.533333v136.533334h-68.266667v-136.533334h-136.533333v-68.266666h136.533333v-136.533334h68.266667z"
                            fill="#00B386" p-id="3257"></path>
                    </svg>